<?xml version="1.0" encoding="utf-8"?>
<svg width="30px" height="65px" viewBox="0 0 30 65" version="1.1" xmlns:xlink="http://www.w3.org/1999/xlink" xmlns="http://www.w3.org/2000/svg">
  <g id="facebook">
    <path d="M30 20.8852L19.8086 20.8852L19.8086 14.2105C19.8086 11.6986 21.4593 11.1244 22.6794 11.1244C23.8278 11.1244 29.9282 11.1244 29.9282 11.1244L29.9282 0.0717706L19.8804 0C8.89952 0 6.38756 8.25359 6.38756 13.5646L6.38756 20.9569L0 20.9569L0 32.2966L6.38756 32.2966C6.38756 46.9378 6.38756 64.5933 6.38756 64.5933L19.8086 64.5933C19.8086 64.5933 19.8086 46.7943 19.8086 32.2966L28.8517 32.2966L30 20.8852L30 20.8852L30 20.8852Z" id="Shape" fill="#6F88A0" fill-rule="evenodd" stroke="none" />
  </g>
</svg>