<?xml version="1.0" encoding="utf-8"?>
<svg width="30px" height="25px" viewBox="0 0 30 25" version="1.1" xmlns:xlink="http://www.w3.org/1999/xlink" xmlns="http://www.w3.org/2000/svg">
  <path d="M30 5.37598C28.877 5.87402 27.749 6.25 26.499 6.37695C27.749 5.625 28.75 4.375 29.248 2.99805C27.998 3.75 26.748 4.24805 25.376 4.50195C24.126 3.25195 22.5 2.5 20.752 2.5C17.373 2.5 14.624 5.24902 14.624 8.62305C14.624 9.12598 14.624 9.62402 14.751 10C9.62402 9.75098 5.12695 7.37305 2.12402 3.62305C1.49902 4.50195 1.25 5.625 1.25 6.74805C1.25 8.87695 2.37305 10.752 3.99902 11.875C2.99805 11.748 2.00195 11.499 1.25 11.123C1.25 11.123 1.25 11.123 1.25 11.25C1.25 14.248 3.37402 16.748 6.12305 17.251C5.625 17.373 5.12695 17.5 4.50195 17.5C4.12598 17.5 3.75 17.5 3.37402 17.373C4.12598 19.873 6.37695 21.626 9.12598 21.626C7.00195 23.252 4.375 24.248 1.49902 24.248C1.00098 24.248 0.498048 24.248 0 24.126C2.74902 25.874 6.00098 26.875 9.375 26.875C20.752 26.875 26.875 17.5 26.875 9.375C26.875 9.12598 26.875 8.87695 26.875 8.62305C28.125 7.74902 29.126 6.62598 30 5.37598" id="Shape" fill="#6F88A0" fill-rule="evenodd" stroke="none" />
</svg>