<?xml version="1.0" encoding="utf-8"?>
<svg width="64px" height="64px" viewBox="0 0 64 64" version="1.1" xmlns:xlink="http://www.w3.org/1999/xlink" xmlns="http://www.w3.org/2000/svg">
  <path d="M63.4452 31.7223C63.4452 27.4402 62.6062 23.2855 60.9517 19.3748C59.3539 15.5968 57.0671 12.2051 54.1536 9.29109C51.2416 6.37862 47.8484 4.09128 44.0714 2.49349C40.1598 0.838481 36.0057 0 31.7234 0C27.4412 0 23.2866 0.838481 19.3758 2.49349C15.5979 4.09128 12.2062 6.3781 9.29214 9.29109C6.37966 12.2046 4.09233 15.5968 2.49454 19.3748C0.83848 23.2855 0 27.4401 0 31.7223C0 36.0046 0.83848 40.1586 2.49349 44.0713C4.09128 47.8477 6.3781 51.241 9.29109 54.1529C12.2046 57.0665 15.5968 59.3533 19.3748 60.9511C23.2861 62.605 27.4401 63.4445 31.7223 63.4445C36.0046 63.4445 40.1586 62.6056 44.0704 60.9511C47.8479 59.3533 51.2411 57.0665 54.1525 54.1529C57.0661 51.241 59.3529 47.8477 60.9506 44.0713C62.6051 40.1586 63.4452 36.0045 63.4452 31.7223L63.4452 31.7223L63.4452 31.7223ZM7.2797 49.5136L23.4653 49.5136C23.3275 49.5493 23.1949 49.5845 23.0683 49.6197C21.3485 50.101 20.6171 50.6052 20.5477 51.3574C20.4498 52.424 21.8154 52.9522 23.1663 53.3268C26.0635 54.1331 29.1887 54.6511 31.7011 55.0675C33.2519 55.3252 34.9575 55.608 35.8878 55.8692C35.6669 55.9642 35.3678 56.079 34.9646 56.2147C27.9098 58.575 22.4747 59.8693 21.341 60.1311C15.6665 58.0494 10.7837 54.3158 7.27963 49.5135L7.2797 49.5136L7.2797 49.5136ZM25.2603 48.0352L16.3748 48.0352L25.9355 32.478L30.6341 39.0286L25.2603 48.0352L25.2603 48.0352ZM37.1353 31.0238L46.9046 48.0351L26.9838 48.0351L37.1353 31.0238L37.1353 31.0238ZM31.7222 61.966C29.0782 61.966 26.5122 61.6251 24.0672 60.9841C26.5561 60.3452 30.624 59.2265 35.4343 57.6165C37.0393 57.0796 37.9549 56.5989 37.8865 55.7302C37.7952 54.5794 36.0815 54.2942 31.9427 53.6078C29.4645 53.1964 26.3826 52.6861 23.5621 51.9017C22.916 51.7225 22.5246 51.5679 22.2914 51.4556C22.8497 51.1892 24.3107 50.7019 28.0638 50.1594C30.6619 49.7812 33.161 49.5521 33.5744 49.5148L35.381 49.5148C34.8277 49.6368 34.3378 49.7547 33.9184 49.867C32.3879 50.2768 31.5515 50.6396 31.5111 51.3817C31.4825 51.917 31.8658 52.2906 32.6517 52.4886C33.9827 52.8223 35.6049 53.0806 37.1748 53.3286C38.8431 53.5934 40.568 53.868 41.8448 54.2217C43.5911 54.7075 43.703 55.1316 43.7076 55.15C43.7091 55.1545 43.7902 55.6169 42.1821 56.707C37.4457 59.9195 32.9527 61.6664 32.1562 61.9634C32.0117 61.9649 31.8668 61.9659 31.7224 61.9659L31.7222 61.966L31.7222 61.966ZM36.7932 61.5398C38.5754 60.6595 40.7534 59.4607 43.0112 57.9292C44.066 57.2137 45.4358 56.1139 45.1494 54.8274C44.7682 53.1193 41.9588 52.5896 37.4047 51.8659C36.3228 51.6955 35.2128 51.5184 34.209 51.3189C35.0811 51.0826 36.4958 50.7616 38.7882 50.3538C41.2868 49.9114 43.6818 49.5664 44.0507 49.5148L56.1654 49.5148C51.6076 55.7572 44.7203 60.1966 36.7934 61.5398L36.7932 61.5398L36.7932 61.5398ZM53.4945 48.0349L53.4945 39.3276L56.1605 42.0589L57.2189 41.025L53.4945 37.2087L53.4945 33.5929L56.0721 36.2339L57.1316 35.201L53.4939 31.475L53.4939 27.7695L56.0715 30.4105L57.131 29.3766L52.7003 24.8377L48.3711 29.3833L49.4412 30.4029L52.0143 27.7027L52.0143 31.3822L48.3715 35.2076L49.4417 36.2273L52.0147 33.5271L52.0147 37.2995L48.4592 41.0331L49.5309 42.0527L52.0158 39.4454L52.0158 48.0359L48.6094 48.0359L37.1595 28.0968L31.4611 37.6457L25.8408 29.8085L14.638 48.0348L12.0705 48.0348L12.071 39.3276L14.737 42.0588L15.7954 41.0249L12.071 37.2086L12.071 33.5929L14.6491 36.2339L15.7076 35.201L12.0709 31.475L12.0709 27.7695L14.6491 30.4105L15.7075 29.3766L11.2768 24.8377L6.94763 29.3832L8.01932 30.4029L10.5909 27.7027L10.5909 31.3822L6.94817 35.2076L8.01986 36.2272L10.5915 33.5271L10.5915 37.2994L7.0365 41.033L8.10768 42.0527L10.5915 39.4454L10.5915 48.0358L6.26493 48.0358C3.23658 43.3245 1.47849 37.7256 1.47849 31.7222C1.47849 15.0466 15.046 1.47913 31.7215 1.47913C48.3971 1.47913 61.9646 15.0466 61.9646 31.7222C61.9646 37.7849 60.1712 43.4369 57.0868 48.1743L57.0868 48.034L53.4945 48.0349L53.4945 48.0349Z" id="Shape" fill="#6f88a0" fill-rule="evenodd" stroke="none" />
</svg>